<svg width="1025" height="1024" viewBox="0 0 1025 1024" fill="none" xmlns="http://www.w3.org/2000/svg">
<rect width="1024" height="1024" transform="translate(0.208984)" fill="url(#paint0_angular_1264_16)"/>
<path d="M373.466 763C347.866 763 323.466 759 300.266 751C277.066 743 256.866 731.8 239.666 717.4C222.466 703 209.866 686.4 201.866 667.6C197.866 659.2 197.866 651.4 201.866 644.2C206.266 637 213.466 632.4 223.466 630.4C230.666 628.8 237.666 630 244.466 634C251.666 637.6 257.066 643.2 260.666 650.8C265.466 660.8 273.266 670 284.066 678.4C295.266 686.8 308.666 693.6 324.266 698.8C339.866 704 356.266 706.6 373.466 706.6C392.666 706.6 410.266 703.6 426.266 697.6C442.666 691.6 455.866 683 465.866 671.8C475.866 660.2 480.866 646 480.866 629.2C480.866 608 472.466 589 455.666 572.2C439.266 555.4 412.066 545 374.066 541C324.466 536.2 285.466 521.6 257.066 497.2C228.666 472.8 214.466 442.6 214.466 406.6C214.466 380.2 221.866 357.8 236.666 339.4C251.466 321 271.466 307 296.666 297.4C322.266 287.8 350.666 283 381.866 283C406.266 283 427.466 286.4 445.466 293.2C463.866 300 479.866 309.4 493.466 321.4C507.066 333.4 518.866 347.6 528.866 364C534.466 372.8 536.666 381.2 535.466 389.2C534.666 396.8 530.866 402.8 524.066 407.2C516.466 412 508.266 413 499.466 410.2C490.666 407.4 484.066 402.2 479.666 394.6C473.266 383 465.466 373.2 456.266 365.2C447.066 357.2 436.266 351 423.866 346.6C411.466 341.8 396.866 339.4 380.066 339.4C350.466 339 325.666 344.6 305.666 356.2C285.666 367.4 275.666 384.8 275.666 408.4C275.666 420.4 278.666 432 284.666 443.2C291.066 454 302.466 463.4 318.866 471.4C335.666 479.4 359.666 485 390.866 488.2C438.466 493 475.466 507.6 501.866 532C528.666 556 542.066 587.8 542.066 627.4C542.066 650.2 537.266 670 527.666 686.8C518.466 703.6 505.866 717.8 489.866 729.4C474.266 740.6 456.266 749 435.866 754.6C415.866 760.2 395.066 763 373.466 763Z" fill="white"/>
<path d="M650.952 763C676.552 763 700.952 759 724.152 751C747.352 743 767.552 731.8 784.752 717.4C801.952 703 814.552 686.4 822.552 667.6C826.552 659.2 826.552 651.4 822.552 644.2C818.152 637 810.952 632.4 800.952 630.4C793.752 628.8 786.752 630 779.952 634C772.752 637.6 767.352 643.2 763.752 650.8C758.952 660.8 751.152 670 740.352 678.4C729.152 686.8 715.752 693.6 700.152 698.8C684.552 704 668.152 706.6 650.952 706.6C631.752 706.6 614.152 703.6 598.152 697.6C581.752 691.6 568.552 683 558.552 671.8C548.552 660.2 543.552 646 543.552 629.2C543.552 608 551.952 589 568.752 572.2C585.152 555.4 612.352 545 650.352 541C699.952 536.2 738.952 521.6 767.352 497.2C795.752 472.8 809.952 442.6 809.952 406.6C809.952 380.2 802.552 357.8 787.752 339.4C772.952 321 752.952 307 727.752 297.4C702.152 287.8 673.752 283 642.552 283C618.152 283 596.952 286.4 578.952 293.2C560.552 300 544.552 309.4 530.952 321.4C517.352 333.4 505.552 347.6 495.552 364C489.952 372.8 487.752 381.2 488.952 389.2C489.752 396.8 493.552 402.8 500.352 407.2C507.952 412 516.152 413 524.952 410.2C533.752 407.4 540.352 402.2 544.752 394.6C551.152 383 558.952 373.2 568.152 365.2C577.352 357.2 588.152 351 600.552 346.6C612.952 341.8 627.552 339.4 644.352 339.4C673.952 339 698.752 344.6 718.752 356.2C738.752 367.4 748.752 384.8 748.752 408.4C748.752 420.4 745.752 432 739.752 443.2C733.352 454 721.952 463.4 705.552 471.4C688.752 479.4 664.752 485 633.552 488.2C585.952 493 548.952 507.6 522.552 532C495.752 556 482.352 587.8 482.352 627.4C482.352 650.2 487.152 670 496.752 686.8C505.952 703.6 518.552 717.8 534.552 729.4C550.152 740.6 568.152 749 588.552 754.6C608.552 760.2 629.352 763 650.952 763Z" fill="white"/>
<defs>
<radialGradient id="paint0_angular_1264_16" cx="0" cy="0" r="1" gradientUnits="userSpaceOnUse" gradientTransform="translate(471.096 1485.86) rotate(-59.6357) scale(890.095 879.171)">
<stop offset="0.0693218" stop-color="#FAFF00"/>
<stop offset="0.306712" stop-color="#001AFF"/>
<stop offset="0.566583" stop-color="#00FF29"/>
<stop offset="0.813454" stop-color="#FF0000"/>
</radialGradient>
</defs>
</svg>
