<svg width="783" height="480" viewBox="0 0 783 480" fill="none" xmlns="http://www.w3.org/2000/svg">
<path d="M252.466 480C226.866 480 202.466 476 179.266 468C156.066 460 135.866 448.8 118.666 434.4C101.466 420 88.866 403.4 80.866 384.6C76.866 376.2 76.866 368.4 80.866 361.2C85.266 354 92.466 349.4 102.466 347.4C109.666 345.8 116.666 347 123.466 351C130.666 354.6 136.066 360.2 139.666 367.8C144.466 377.8 152.266 387 163.066 395.4C174.266 403.8 187.666 410.6 203.266 415.8C218.866 421 235.266 423.6 252.466 423.6C271.666 423.6 289.266 420.6 305.266 414.6C321.666 408.6 334.866 400 344.866 388.8C354.866 377.2 359.866 363 359.866 346.2C359.866 325 351.466 306 334.666 289.2C318.266 272.4 291.066 262 253.066 258C203.466 253.2 164.466 238.6 136.066 214.2C107.666 189.8 93.466 159.6 93.466 123.6C93.466 97.2 100.866 74.8 115.666 56.4C130.466 38 150.466 24 175.666 14.4C201.266 4.79998 229.666 -1.28746e-05 260.866 -1.28746e-05C285.266 -1.28746e-05 306.466 3.39998 324.466 10.2C342.866 17 358.866 26.4 372.466 38.4C386.066 50.4 397.866 64.6 407.866 81C413.466 89.8 415.666 98.2 414.466 106.2C413.666 113.8 409.866 119.8 403.066 124.2C395.466 129 387.266 130 378.466 127.2C369.666 124.4 363.066 119.2 358.666 111.6C352.266 100 344.466 90.2 335.266 82.2C326.066 74.2 315.266 68 302.866 63.6C290.466 58.8 275.866 56.4 259.066 56.4C229.466 56 204.666 61.6 184.666 73.2C164.666 84.4 154.666 101.8 154.666 125.4C154.666 137.4 157.666 149 163.666 160.2C170.066 171 181.466 180.4 197.866 188.4C214.666 196.4 238.666 202 269.866 205.2C317.466 210 354.466 224.6 380.866 249C407.666 273 421.066 304.8 421.066 344.4C421.066 367.2 416.266 387 406.666 403.8C397.466 420.6 384.866 434.8 368.866 446.4C353.266 457.6 335.266 466 314.866 471.6C294.866 477.2 274.066 480 252.466 480Z" fill="white"/>
<path d="M529.952 480C555.552 480 579.952 476 603.152 468C626.352 460 646.552 448.8 663.752 434.4C680.952 420 693.552 403.4 701.552 384.6C705.552 376.2 705.552 368.4 701.552 361.2C697.152 354 689.952 349.4 679.952 347.4C672.752 345.8 665.752 347 658.952 351C651.752 354.6 646.352 360.2 642.752 367.8C637.952 377.8 630.152 387 619.352 395.4C608.152 403.8 594.752 410.6 579.152 415.8C563.552 421 547.152 423.6 529.952 423.6C510.752 423.6 493.152 420.6 477.152 414.6C460.752 408.6 447.552 400 437.552 388.8C427.552 377.2 422.552 363 422.552 346.2C422.552 325 430.952 306 447.752 289.2C464.152 272.4 491.352 262 529.352 258C578.952 253.2 617.952 238.6 646.352 214.2C674.752 189.8 688.952 159.6 688.952 123.6C688.952 97.2 681.552 74.8 666.752 56.4C651.952 38 631.952 24 606.752 14.4C581.152 4.79998 552.752 -1.28746e-05 521.552 -1.28746e-05C497.152 -1.28746e-05 475.952 3.39998 457.952 10.2C439.552 17 423.552 26.4 409.952 38.4C396.352 50.4 384.552 64.6 374.552 81C368.952 89.8 366.752 98.2 367.952 106.2C368.752 113.8 372.552 119.8 379.352 124.2C386.952 129 395.152 130 403.952 127.2C412.752 124.4 419.352 119.2 423.752 111.6C430.152 100 437.952 90.2 447.152 82.2C456.352 74.2 467.152 68 479.552 63.6C491.952 58.8 506.552 56.4 523.352 56.4C552.952 56 577.752 61.6 597.752 73.2C617.752 84.4 627.752 101.8 627.752 125.4C627.752 137.4 624.752 149 618.752 160.2C612.352 171 600.952 180.4 584.552 188.4C567.752 196.4 543.752 202 512.552 205.2C464.952 210 427.952 224.6 401.552 249C374.752 273 361.352 304.8 361.352 344.4C361.352 367.2 366.152 387 375.752 403.8C384.952 420.6 397.552 434.8 413.552 446.4C429.152 457.6 447.152 466 467.552 471.6C487.552 477.2 508.352 480 529.952 480Z" fill="white"/>
</svg>
